<?xml version="1.0" encoding="UTF-8"?><svg id="_图层_1" xmlns="http://www.w3.org/2000/svg" viewBox="0 0 424.26 387.12"><defs><style>.cls-1{fill:#f0df3c;}.cls-2{fill:#101426;}.cls-3{fill:#e1776c;}.cls-4{fill:#fff;}.cls-5{fill:#cfa117;}.cls-6{fill:#f7ec1e;}</style></defs><path class="cls-5" d="M198.46,327.5c7.14,7.99,15.47,13.1,25.67,14.82-.83,3.52-1.9,7.01-2.45,10.58-1.16,7.5-1.95,15.06-3.17,22.55-.17,1.06-1.81,1.93-2.87,2.77-.31.24-.97.04-1.47.04-4.67.06-6.98.09-8.2-1.05-2.17-2.04-1.74-6.55-1.56-8,.73-5.79.65-14.99-2.39-30.43-.4-1.34-.81-2.69-1.24-4.05-.77-2.46-1.55-4.87-2.35-7.22Z"/><path class="cls-6" d="M193.5,330.72c-2.14,1.03-4.94,2.39-7.75,3.74-4.22,2.03-5.58,2.83-6.9,2.18-2.03-.99-3.03-4.89-3.04-4.91h0c-.53-1.07-1.11-2.46-1.53-4.14-.37-1.48-.53-2.81-.59-3.91-1.75,2.45-3.47,4.84-5.46,7.63-.97-1.17-2.27-2.99-3.13-5.46-2.87-8.24,1.82-15.72-.06-16.93-.81-.52-2.81.12-8.06,5.32-3.65-9.27.41-19.26,6.13-29.91l-.22-.56c-3.42,1.34-6.21,2.43-9.17,3.59-.13-1.12-.18-2.23-.18-3.3,2.76.89,5.51,1.78,8.27,2.67.67,1.67,1.33,3.33,2,5l3,15-5,10c5.67,4,11.33,8,17,12-9.4,5.1-18.91,10.45-28.54,16.06-4.18,2.44-8.3,4.88-12.37,7.33-.39-.44-.79-.88-1.18-1.32,2.67-5.07,5.34-10.14,8.71-16.54-5.26.85-9.26,1.19-13.1,2.16-12.51,3.17-24.95,6.6-37.44,9.84-1.87.48-3.86.49-5.79.72-.22-.23-.44-.45-.66-.67,3.36-4.01,6.72-8.02,10.55-12.58h-30.83c0-.31,0-.63,0-.94,12.98-5.41,26.18-10.36,38.88-16.36,12.57-5.94,24.65-12.95,36.94-19.49-.18-.54-.36-1.08-.55-1.63-3.87-.69-7.74-1.39-11.61-2.08-.13-.52-.27-1.03-.4-1.54,7.4-3.81,14.8-7.62,22.36-11.52.87-.45,1.76-.9,2.64-1.36,1.28-.65,2.57-1.32,3.86-1.98,1.93-.99,3.87-1.99,5.82-3-.04,11.17.86,22.15,7.52,31.37,6.32,8.74,13.24,17.04,19.89,25.52Z"/><path class="cls-5" d="M174.86,331.44s-6.37,2.68-7.05,3.29c-.78-.42-5.63-3.13-7-9-1.02-4.36.48-7.89,1-9-.64.28-1.31.61-2,1-2.18,1.25-3.82,2.72-5,4-1.38-5.08-2.83-13.3-1-23,.73-3.87,1.84-7.22,3-10-.88-.21-1.54-.13-2,0-.96.27-2,1-2,1,0,0-.76-1.67-1-3-.48-2.63.89-4.83,1-5,.66-1.03,1.47-1.66,2-2-.63,1.42-1.28,3.48-1.23,5.96.01.59.06,1.15.14,1.67,2.96-1.16,5.75-2.25,9.17-3.59,1.31-.68,2.61-1.36,3.92-2.04-1.36,1.65-3.15,4-5,7-2.19,3.55-4.21,6.84-5.28,11.07-.65,2.58-1.5,7.7.45,14.44,4.12-3.85,9.05-8.19,9.83-7.51.33.29-.32,1.32-1,3-.31.76-3.38,8.62-.71,16.12.46,1.3,1.35,3.29,3.13,5.46,1.99-2.79,3.71-5.18,5.46-7.63.4,2.63.79,5.22,1.17,7.76Z"/><path class="cls-6" d="M323.61,251.94c3.57,1.59,7.13,3.18,10.77,4.81-1.14-11.72-6.71-20.35-17.14-25.85.16-.33.32-.67.48-1.01,3.84.27,7.69.54,11.91.84-2.91-3.26-6.12-5.79-9.59-7.68-5.84-3.18-11.16-3.81-14.42-4.18-3.61-.41-6.66-.31-8.81-.14.92,4.25,1.05,7.67,1,10-.04,1.93-.3,2.73-.56,7.88-.17,3.28-.12,4.51-.44,7.12-1.31,10.84-11.23,24.44-11.35,24.36-.02-.01.22-.46,1.35-2.36-.11-1.17-.49-3.21-2-5-.33-.39-.67-.72-1-1,.04.14.09.27.14.41.67,1.84,1.71,3.36,2.86,4.59,1.66-1.94,4.27-5.5,5.83-10.64,1.45-4.77,1.39-8.88,1.17-11.36-.17-1.67-.63-4.21-2-7-1.58-3.23-3.67-5.34-5.01-6.51,1.48,1.17,3.47,2.48,6.01,3.51,1.06.43,2.07.75,3,1,.07-4.12-.28-9.69-2-16-2.3-8.44-6.09-14.69-8.89-18.57,1.88.31,3.18.34,4.34.76,4.24,1.57,5,1.1,5-3.44.01-21.09.17-42.17-.12-63.25-.07-4.4-1.14-9.11-3-13.09-2.45-5.22-4.72-9.65,1.7-13.49.77-.46,1.09-1.61,1.73-2.35,9.6-10.98,14.77-23.68,14.63-38.35-.06-6.2-.55-12.38-.69-18.58-.12-5.11-.01-10.23-.01-15.35,0-4.23-1.95-8.16-5.21-8.93-3.91-.93-8.34-1.83-11.23,2.17-4.96,6.85-9.67,13.88-14.38,20.9-5.23,7.79-8.82,16.32-11.12,25.41-1.3,5.16-2.69,10.29-3.99,15.21-3.92-.36-7.3-.68-10.68-.99-.04-.35-.08-.7-.12-1.04,3.02-1.88,6.03-3.76,9.62-6-8.21-3.87-15.72-5.03-23.71-1.96-.12-.48-.25-.96-.37-1.45,5-3.78,10-7.56,14.82-11.21-13.56-2.28-24.79,2.92-34.92,12.89.26-7.94,4.89-12.84,8.8-18.43-1.98,0-3.35-.08-4.71.03-.84.07-1.69.36-2.46.71-10.95,4.91-20.77,10.9-23.54,23.92-.19.87-1.57,2.1-2.4,2.11-4.02.05-8.29-4-9.5-7.93-1.87-6.06-3.29-12.46-6.34-17.89-6.28-11.17-13.4-21.87-20.4-32.61-2.58-3.94-8.3-5.55-12.53-4.22-2.92.92-4.76,4.23-4.86,8.78v44.33c.13,1.47.09,2.98.42,4.41,2.61,11.33,8.45,20.83,16.81,28.78,2.04,1.94,2.5,3.41.99,5.95-4.29,7.29-5.67,15.26-5.56,23.71.22,18.57.13,37.15.09,55.73-.02,6.72-.13,6.72,5.21,4.68.17-.06.39-.01,1.26-.01-1.91,5.38-4.3,10.38-5.4,15.66-1.12,5.32-.96,10.91-1.38,16.67,4.48-1.51,8.16-2.75,11.85-3.99.22.32.45.65.67.98-8.55,9.5-12.38,20.63-12.18,33.33,4.19-1.53,8.1-2.96,12.02-4.4-4.9,7.32-9.26,14.46-10.3,22.85-.16,1.27-.24,2.56-.23,3.89,0,1.07.05,2.18.18,3.3,2.96-1.16,5.75-2.25,9.17-3.59.22-.09.44-.17.66-.26-.15.27-.3.55-.44.82-5.72,10.65-9.78,20.64-6.13,29.91,3.65-3.22,7.24-6.02,8.06-5.32.52.45-.59,1.89-1.23,4.81-1.23,5.61.63,10.46,1.29,12.12.55,1.38,1.49,3.35,3.13,5.46,1.99-2.79,3.71-5.18,5.46-7.63.4,2.63.79,5.22,1.17,7.76.04.23.07.45.1.67.85,5.58,1.67,10.99,2.47,16.4,1.28,8.61,2.44,17.24,3.86,25.82.23,1.4,1.63,3.82,2.25,3.74,3.94-.49,8.38,2.16,11.83-1.54.46-.49.65-1.35.73-2.06.56-5.01,1.06-10.03,1.58-15.05.71-6.96,1.42-13.91,2.13-20.87v-8.82c3.18,3.11,8.33,7.28,15.61,10.14,3.17,1.25,6.14,2,8.72,2.46.3-1.46.61-2.93,1.05-5.06,2.73,2.16,5.07,4,7.89,6.23,3.92-2.89,8.29-6.09,13.26-9.75,2.43,15.16,4.78,29.83,7.13,44.53,3.84,0,7.33-.03,10.82.01,1.89.03,2.87-.5,3.11-2.69.84-7.81,1.85-15.6,2.95-23.37.57-4.05,1.45-8.05,2.19-12.07.63-4.35,1.27-8.7,1.9-13.05.6,4.21,1.58,7.44,2.37,9.62.5,1.39.96,2.43,2,3,.68.37,2.16.86,6-1,2.46-1.19,7.6-3.78,11-10,.84-1.54,2.01-4.09,2.57-7.56.68,1.83,1.06,2.87,1.45,3.91,1.55,2.34,3.11,4.69,4.79,7.22,2.99-3.12,5.1-6.78,5.31-11.26.19-4.08.04-8.17.04-13.02,2.52,3.46,4.68,6.44,7.09,9.75,5.51-9.58,2.21-18.65-1-27.71.41-.25,6.87,5.68,9.69,8.9,4.83-9.42,4.57-18.94-.91-28.68,2.68,1.6,5.35,3.2,8.1,4.84,1.67-9.63-3.88-16.12-10.12-22.31.26-.29.53-.58.79-.87Z"/><path class="cls-6" d="M272.79,88.87c3.81-12.23,7.81-24.4,15.16-35.1,1.91-2.78,4.01-5.44,6.32-8.54,6.29,14.77,3.29,40.42-13.02,56.5-2.83-2.73-5.73-5.11-8.04-7.96-.86-1.07-.88-3.41-.42-4.9Z"/><path class="cls-6" d="M159.87,94.01c-8.4-11.69-9.99-24.88-8.47-38.74.18-1.61.19-3.26.57-4.81.32-1.35,1.06-2.61,1.61-3.9,1.16.83,2.73,1.41,3.39,2.52,3.96,6.76,8.22,13.42,11.37,20.55,2.86,6.45,4.49,13.44,6.49,20.25.28.94-.02,2.55-.69,3.19-2.67,2.59-5.59,4.91-9.05,7.88-1.83-2.43-3.58-4.65-5.22-6.94Z"/><path class="cls-6" d="M164.09,178.9c-.84-3.99,1.34-7.49,5.93-9.6,1.11-.51,2.17-1.1,3.26-1.65-5.81-10.18-.55-22.05,10.22-23.07,7.55-.71,14.74,5.74,15.6,14,.78,7.48-4.08,13.4-11.92,14.47-1.48.2-2.98.19-4.47.29.15,2.31.81,4.74.34,6.92-.92,4.31-5.36,7.25-9.43,6.88-4.34-.39-8.67-4.13-9.53-8.24Z"/><path class="cls-6" d="M202.96,290.95c-1.2,1.64-2.04,2.78-3.18,4.33-5.61-3.59-7.19-9.27-8.4-15.67-2.63,2.8-5.09,5.43-7.56,8.07-.37-.24-.73-.48-1.1-.72,1.16-5.66,5.71-8.89,9.82-12.74-.89,6.57,1.24,12.05,5.01,17.71,2.64-3.39,4.95-6.36,8.12-10.43-.25,11.39,7.69,16.72,13.43,23.55-7.22-2.35-12.5-6.92-16.14-14.1Z"/><path class="cls-6" d="M231.69,304.63c3.88-5.87,7.45-11.28,11.33-17.14,2.67,6.84-3.5,16.29-11.33,17.14Z"/><path class="cls-6" d="M240.87,182.65c-1,2.12-1.74,4.43-3.08,6.31-1.1,1.54-2.74,2.95-4.45,3.77-3.42,1.64-6.75.72-9.83-1.3-3.03,2.95-6.36,2.13-9.61.59-4.27-2.02-5.61-6.05-6.63-10.23-2.62.19-3.04-1.66-2.65-3.44,1.04-4.71,2.29-9.38,3.67-14,.45-1.52,1.54-2.84,2.35-4.25,6.51-11.39,20.17-11.34,27.11-.03,3.26,5.31,5.65,10.87,5.86,17.11.06,1.99,1.59,5.4-2.74,5.47Z"/><path class="cls-6" d="M247.96,298.76c-.63.4-1.74.07-2.62.08.04-1.15-.37-2.96.18-3.32,6.71-4.38,9.84-10.94,11.7-18.35.12-.48.29-.95.5-1.4.1-.19.34-.32.8-.73,2.16,11.87-2.95,18.86-10.56,23.72Z"/><path class="cls-6" d="M262.85,177.75c-.09-1.49,0-3,.01-4.49-7.59-.8-13.19-5.67-14.28-12.42-.96-6,2.37-11.99,8.28-14.87,5.37-2.62,10.78-1.56,15.26,2.99,4.61,4.69,5.78,10.84,3.03,16.01-.4.77-.88,1.5-1.33,2.24,1.75,1.17,3.45,2.43,5.26,3.49,2.57,1.52,3.47,3.74,3.32,6.6-.27,4.96-5.38,9.9-10.41,10-4.69.1-8.81-4.18-9.14-9.55Z"/><path class="cls-6" d="M282.16,278.19c-2,3.07-4.61,5.77-7.14,8.46-.48.51-1.98.63-2.61.26-.56-.34-.86-1.65-.74-2.46.59-4.17,1.36-8.32,2-12.14.92,1.78,2.24,4.32,3.8,7.34,1.74-2.69,3.24-5.01,4.74-7.34.28.04.56.09.84.13-.26,1.94.07,4.26-.89,5.75Z"/><path class="cls-6" d="M65.1,70.25c-2.83,2.36-5.55,4.39-8,6.71-7.76,7.37-15.4,14.86-23.12,22.27-1.96,1.88-4.16,3.51-6.08,5.43-3.51,3.52-3.31,4.29.22,7.93,7.76,8,16.07,15.46,23.94,23.36,9.31,9.34,18.35,18.95,27.6,28.36,8.52,8.66,17.15,17.22,25.78,25.77,2.28,2.26,4.87,4.21,7.17,6.45,4.04,3.95,4.62,8.67,1.61,13.37-10.42,16.24-20.86,32.47-31.36,48.65-3.71,5.72-7.78,11.22-11.41,16.99-1.46,2.32-2.19,5.1-3.51,8.29,18.27,7,37.23,11.82,55.86,17.64,0,.39,0,.79,0,1.18-4.27,1.87-8.42,4.23-12.88,5.41-2.17.57-4.96-.92-7.4-1.7-13.64-4.35-27.15-9.18-40.94-12.99-6.23-1.72-10.34-6-5.36-13.62,6.57-10.07,13.17-20.12,19.67-30.23,7.09-11.04,14.09-22.14,21.1-33.22,1.9-3,3.64-6.11,5.63-9.05,1.55-2.29,1.08-3.81-.85-5.73-18.6-18.46-37.09-37.02-55.62-55.55-9.27-9.26-18.59-18.47-27.79-27.8-2.16-2.19-4.3-4.57-5.81-7.22-1.49-2.61-.18-5.27,1.81-7.24,12.57-12.4,25.19-24.75,37.84-37.07,3.73-3.64,7.67-7.07,11.37-10.73,2.35-2.33,4.75-5.12,8.26-3.6,3.6,1.56,3.47,5.72,3.36,8.8-.38,10.48-1.44,20.94-2.06,31.42-.42,7.18-.57,14.39-.79,21.58-.11,3.5-2.45,6.06-5.6,6-2.44-.05-5.02-2.98-4.83-5.97.64-9.6,1.56-19.19,2.13-28.8.28-4.77.05-9.57.05-15.1Z"/><circle class="cls-3" cx="272.31" cy="176.23" r="11.5"/><circle class="cls-3" cx="173.31" cy="178.23" r="11.5"/><path class="cls-6" d="M343.64,271.37c-1.31-2.8-2.41-5.13-3.56-7.59,14.08-13.18,28.22-26.42,43.05-40.32-5.46-1.44-10.16-2.84-14.93-3.91-6.08-1.37-12.27-2.24-18.31-3.77-5.44-1.38-7.17-5.7-4.26-10.45,9.73-15.89,19.6-31.68,29.43-47.52,4.91-7.91,9.94-15.75,14.65-23.77,1.24-2.11,2.75-2.69,4.5-1.82,1.96.97,3.14,2.87,1.86,5.2-1.95,3.53-4.05,6.97-6.07,10.46-9.05,15.61-18.12,31.22-27.14,46.85-2.13,3.69-4.11,7.47-6.44,11.73,8.21,1.99,15.65,3.82,23.11,5.58,4.52,1.07,9.1,1.88,13.57,3.11,2.36.64,5.48,1.28,5.46,4.4-.02,1.87-1.15,4.23-2.56,5.52-11.13,10.17-22.43,20.16-33.73,30.15-6.09,5.38-12.28,10.65-18.64,16.16Z"/><path class="cls-6" d="M369.44,316.93c-3.54,2.72-6.6,4.91-9.48,7.31-12.22,10.15-24.35,20.41-36.67,30.44-1.06.86-3.78,1.04-4.82.29-2.16-1.58-.41-3.19,1.01-4.49,12.23-11.21,24.46-22.42,36.68-33.64,3.38-3.1,6.77-6.18,10.07-9.35,4.9-4.72,9.62-3.56,11.25,2.96,2.27,9.1,4.53,18.21,6.41,27.39.3,1.45-1.04,3.99-2.36,4.79-1.1.67-4.12.12-4.85-.91-1.54-2.18-2.35-4.97-3.07-7.61-1.47-5.41-2.67-10.89-4.18-17.16Z"/><path class="cls-6" d="M36.82,246.1c-1.96-11.15-3.92-22.3-5.96-33.92-6.47-1.16-13.4-2.4-20.34-3.64,0-.5,0-1,.01-1.5,3.21-.83,6.41-1.7,9.63-2.47,2.13-.52,4.32-1.36,6.44-1.25,4.17.2,4.37-2.68,4.83-5.43,1.81-10.86,3.56-21.73,6.23-32.63,1.49,12.62,2.98,25.24,4.54,38.51,6.64,1.13,13.55,2.3,21.35,3.63-6.49,4.26-13.81,2.49-19.67,4.89-2.52,11.41-2.79,22.95-6.07,33.91l-.99-.09Z"/><path class="cls-5" d="M272.54,340.16c.64-4.35,1.27-8.7,1.91-13.05.12.21.24.42.37.62,1.63,1.95,2.52,3.79,3,5,.46,1.16.97,2.46,1,4,0,.41,0,2,0,2h0s3.53-.88,4-1c1.86-.48,8.53-2.69,12.61-8.89.96-1.46,2.34-4,2.96-7.67.68,1.83,1.06,2.87,1.45,3.91-1.18,3.42-2.83,6.76-3.44,10.27-1.69,9.74-2.97,19.55-4.37,29.34-.55,3.87-.87,7.78-1.59,11.62-.15.77-1.62,1.78-2.54,1.83-3.45.22-6.93.09-10.83.09,0-5.65,0-11.08,0-16.52,0-3.74-.09-7.48,0-11.21.11-4.2.6-8.49-4.53-10.36Z"/><path class="cls-6" d="M370.55,68.52c-1.16-7.78-5.23-12.65-12.84-15.16,6.74-1.27,9.74-6.32,13.11-12.41,1.82,7.35,6.06,10.95,12.64,12.56-8.34,1.71-11.63,7.39-12.9,15.02Z"/><path class="cls-1" d="M90.13,356.09c-.27.08-.54.16-.81.24.1-.25.2-.5.3-.75.17.17.34.34.51.51Z"/><path class="cls-4" d="M207.27,181.78c-2.61.19-3.04-1.66-2.65-3.43,1.04-4.71,2.29-9.38,3.67-14.01.45-1.51,1.55-2.84,2.35-4.24,6.51-11.39,20.17-11.35,27.11-.04,3.26,5.31,5.66,10.87,5.86,17.11.06,2,1.6,5.4-2.73,5.47-.67-.77-1.33-1.55-2.19-2.55-1.31,2.2-1.96,4.38-3.43,5.45-1.73,1.26-4.19,2.09-6.28,1.99-.84-.04-2.11-3.01-2.2-4.7-.42-7.97-.26-7.85,7.15-10.45,1.59-.56,2.76-2.33,4.12-3.54-1.62-.8-3.22-2.24-4.87-2.3-6.21-.22-12.44-.09-18.65.17-1.33.05-2.62,1.17-3.93,1.8,1.1,1.27,1.96,3.23,3.33,3.69,6.88,2.31,6.92,2.17,7.07,9.52.02,1.12.35,2.33.02,3.33-.31.94-1.15,2.19-1.99,2.4-3.55.89-5.97-.71-7.4-4-.87-2.01-1.91-3.72-4.36-1.67Z"/><path class="cls-5" d="M281.24,101.73c-2.83-2.73-5.72-5.11-8.03-7.96-.87-1.07-.88-3.41-.42-4.9,3.8-12.23,7.81-24.4,15.15-35.1,1.91-2.79,4.02-5.44,6.32-8.55,6.29,14.77,3.3,40.42-13.02,56.5Z"/><path class="cls-5" d="M165.09,100.94c-1.83-2.43-3.58-4.65-5.22-6.94-8.39-11.69-9.99-24.88-8.46-38.75.18-1.61.19-3.25.56-4.81.33-1.35,1.06-2.6,1.62-3.9,1.15.83,2.73,1.41,3.38,2.53,3.96,6.76,8.22,13.41,11.38,20.55,2.85,6.45,4.48,13.45,6.49,20.25.28.94-.02,2.55-.69,3.19-2.67,2.59-5.6,4.91-9.06,7.88Z"/><path class="cls-2" d="M173.28,167.65c-5.81-10.18-.55-22.05,10.22-23.07,7.55-.71,14.74,5.74,15.6,14,.78,7.48-4.08,13.4-11.92,14.47-1.48.2-2.98.2-4.47.29-3.14-1.89-6.28-3.79-9.43-5.68ZM188.25,149.88c-3.21-.05-5.38,1.91-5.25,4.96.12,2.92,1.79,4.55,4.72,4.69,2.91.14,5.87-2.43,5.97-5.08.09-2.25-2.63-4.53-5.44-4.57Z"/><path class="cls-2" d="M262.86,173.25c-7.59-.8-13.19-5.67-14.28-12.41-.97-6,2.37-12,8.27-14.88,5.37-2.62,10.78-1.56,15.26,3,4.61,4.69,5.79,10.84,3.04,16.01-.41.77-.89,1.49-1.33,2.24-3.65,2.01-7.31,4.03-10.96,6.05ZM265.57,159.61c2.97-.07,5.71-2.61,5.54-5.44-.2-3.17-2.67-3.99-5.25-4.16-2.83-.18-5.18,2.35-5.22,5.24-.04,2.64,1.99,4.43,4.94,4.36Z"/><path class="cls-2" d="M207.27,181.78c2.45-2.05,3.49-.34,4.36,1.67,1.43,3.29,3.85,4.9,7.4,4,.84-.21,1.68-1.46,1.99-2.4.32-1,0-2.21-.02-3.33-.15-7.34-.2-7.21-7.07-9.52-1.37-.46-2.23-2.42-3.33-3.69,1.31-.63,2.6-1.74,3.93-1.8,6.21-.25,12.44-.38,18.65-.17,1.65.06,3.25,1.5,4.87,2.3-1.36,1.21-2.53,2.98-4.12,3.54-7.41,2.59-7.57,2.48-7.15,10.45.09,1.69,1.36,4.67,2.2,4.7,2.09.1,4.55-.73,6.28-1.99,1.47-1.07,2.12-3.25,3.43-5.45.86,1,1.53,1.78,2.19,2.55-1,2.12-1.74,4.42-3.08,6.3-1.1,1.55-2.74,2.95-4.45,3.77-3.42,1.64-6.76.72-9.83-1.3-3.03,2.95-6.36,2.13-9.62.59-4.27-2.02-5.61-6.05-6.63-10.23Z"/><path class="cls-5" d="M182.72,286.96c1.16-5.67,5.71-8.9,9.82-12.74-.89,6.57,1.24,12.05,5.01,17.71,2.64-3.39,4.95-6.36,8.12-10.43-.25,11.39,7.69,16.72,13.43,23.55-7.22-2.35-12.51-6.92-16.14-14.1-1.2,1.64-2.05,2.78-3.19,4.34-5.6-3.59-7.19-9.27-8.4-15.67-2.62,2.8-5.09,5.43-7.56,8.07-.37-.24-.73-.48-1.1-.71Z"/><path class="cls-5" d="M258.52,275.04c2.16,11.87-2.96,18.85-10.57,23.71-.63.4-1.73.07-2.62.08.04-1.14-.37-2.96.18-3.32,6.7-4.38,9.83-10.93,11.69-18.34.12-.48.3-.95.51-1.4.09-.19.34-.32.8-.73Z"/><path class="cls-5" d="M273.67,272.31c.92,1.78,2.24,4.32,3.79,7.33,1.74-2.69,3.24-5.01,4.74-7.33.28.04.56.08.84.13-.26,1.94.07,4.26-.89,5.75-2,3.08-4.61,5.78-7.14,8.47-.48.51-1.98.63-2.61.25-.56-.34-.86-1.65-.75-2.45.6-4.17,1.36-8.32,2.01-12.14Z"/><path class="cls-5" d="M243.02,287.48c2.68,6.85-3.5,16.3-11.33,17.14,3.88-5.88,7.45-11.28,11.33-17.14Z"/><path class="cls-4" d="M188.25,149.88c2.81.04,5.53,2.32,5.44,4.57-.11,2.65-3.06,5.22-5.97,5.08-2.94-.14-4.61-1.76-4.72-4.69-.12-3.05,2.04-5,5.25-4.96Z"/><path class="cls-4" d="M265.57,159.61c-2.95.07-4.97-1.72-4.94-4.36.04-2.89,2.39-5.42,5.22-5.24,2.58.17,5.05.99,5.25,4.16.18,2.83-2.57,5.37-5.54,5.44Z"/><path class="cls-5" d="M293.81,217.73c.45,2.34.83,5.03,1,8,.15,2.55.12,4.9,0,7-.91-.23-1.92-.55-3-1-2.14-.9-3.8-2.03-5-3,1.53,2.02,6.44,9.04,6,19-.33,7.4-3.45,12.71-5,15-.61-.66-1.28-1.33-2-2-1.71-1.6-3.41-2.92-5-4,.91,1.06,2.13,2.72,3,5,1.3,3.39,1.18,6.4,1,8,3.48-3.43,8.55-9.35,12-18,5.86-14.71,3.28-27.93,2-33-1.67-.33-3.33-.67-5-1Z"/><path class="cls-6" d="M123.81,114.21c-.12-.84-.6-3.43-2.83-5.66-.6-.6-2.53-2.38-5.66-2.83.84-.12,3.43-.6,5.66-2.83.6-.6,2.38-2.53,2.83-5.66.12.84.6,3.43,2.83,5.66.6.6,2.53,2.38,5.66,2.83-.96.21-3.35.87-5.49,3s-2.79,4.52-3,5.49Z"/><path class="cls-6" d="M94.1,33.57c-.06-.4-.29-1.64-1.36-2.71-.29-.29-1.21-1.14-2.71-1.36.4-.06,1.64-.29,2.71-1.36.29-.29,1.14-1.21,1.36-2.71.06.4.29,1.64,1.36,2.71.29.29,1.21,1.14,2.71,1.36-.46.1-1.61.42-2.63,1.44s-1.34,2.17-1.44,2.63Z"/><path class="cls-6" d="M211.71,16.97c-.12-.84-.6-3.43-2.83-5.66-.6-.6-2.53-2.38-5.66-2.83.84-.12,3.43-.6,5.66-2.83.6-.6,2.38-2.53,2.83-5.66.12.84.6,3.43,2.83,5.66.6.6,2.53,2.38,5.66,2.83-.96.21-3.35.87-5.49,3s-2.79,4.52-3,5.49Z"/><path class="cls-6" d="M345.39,129c-.12-.84-.6-3.43-2.83-5.66-.6-.6-2.53-2.38-5.66-2.83.84-.12,3.43-.6,5.66-2.83.6-.6,2.38-2.53,2.83-5.66.12.84.6,3.43,2.83,5.66.6.6,2.53,2.38,5.66,2.83-.96.21-3.35.87-5.49,3s-2.79,4.52-3,5.49Z"/><path class="cls-6" d="M402.94,177.59c-.09-.62-.44-2.53-2.09-4.18-.44-.44-1.87-1.76-4.18-2.09.62-.09,2.53-.44,4.18-2.09.44-.44,1.76-1.87,2.09-4.18.09.62.44,2.53,2.09,4.18.44.44,1.87,1.76,4.18,2.09-.71.16-2.48.64-4.05,2.22s-2.06,3.34-2.22,4.05Z"/><path class="cls-6" d="M391.94,200.59c-.05-.32-.23-1.32-1.09-2.18-.23-.23-.98-.92-2.18-1.09.32-.05,1.32-.23,2.18-1.09.23-.23.92-.98,1.09-2.18.05.32.23,1.32,1.09,2.18.23.23.98.92,2.18,1.09-.37.08-1.29.33-2.11,1.16s-1.07,1.74-1.16,2.11Z"/><path class="cls-6" d="M415.78,269.92c-.12-.84-.6-3.43-2.83-5.66-.6-.6-2.53-2.38-5.66-2.83.84-.12,3.43-.6,5.66-2.83.6-.6,2.38-2.53,2.83-5.66.12.84.6,3.43,2.83,5.66.6.6,2.53,2.38,5.66,2.83-.96.21-3.35.87-5.49,3s-2.79,4.52-3,5.49Z"/><path class="cls-6" d="M348.26,387.12c-.15-1.08-.77-4.43-3.66-7.31-.77-.77-3.28-3.08-7.31-3.66,1.08-.15,4.43-.77,7.31-3.66.77-.77,3.08-3.28,3.66-7.31.15,1.08.77,4.43,3.66,7.31.77.77,3.28,3.08,7.31,3.66-1.24.27-4.34,1.12-7.09,3.88s-3.61,5.85-3.88,7.09Z"/><path class="cls-6" d="M120.58,163.37c-.05-.32-.23-1.29-1.07-2.14-.23-.23-.96-.9-2.14-1.07.32-.05,1.29-.23,2.14-1.07.23-.23.9-.96,1.07-2.14.05.32.23,1.29,1.07,2.14.23.23.96.9,2.14,1.07-.36.08-1.27.33-2.07,1.13s-1.05,1.71-1.13,2.07Z"/><path class="cls-6" d="M8.49,265.73c-.12-.84-.6-3.43-2.83-5.66-.6-.6-2.53-2.38-5.66-2.83.84-.12,3.43-.6,5.66-2.83.6-.6,2.38-2.53,2.83-5.66.12.84.6,3.43,2.83,5.66.6.6,2.53,2.38,5.66,2.83-.96.21-3.35.87-5.49,3s-2.79,4.52-3,5.49Z"/><path class="cls-6" d="M37.05,313.97c-.17-1.2-.86-4.93-4.07-8.14-.86-.86-3.65-3.43-8.14-4.07,1.2-.17,4.93-.86,8.14-4.07.86-.86,3.43-3.65,4.07-8.14.17,1.2.86,4.93,4.07,8.14.86.86,3.65,3.43,8.14,4.07-1.38.3-4.82,1.25-7.89,4.32s-4.01,6.51-4.32,7.89Z"/><circle class="cls-2" cx="184.81" cy="158.73" r="15"/><circle class="cls-4" cx="189.81" cy="154.73" r="5"/><circle class="cls-2" cx="261.81" cy="158.73" r="15"/><circle class="cls-4" cx="266.81" cy="154.73" r="5"/></svg>
