<?xml version="1.0" encoding="UTF-8"?><svg id="_图层_1" xmlns="http://www.w3.org/2000/svg" viewBox="0 0 286.88 287.62"><defs><style>.cls-1{fill:#101426;}.cls-2{fill:#e1776c;}.cls-3{fill:#fff;}.cls-4{fill:#199630;}.cls-5{fill:#cfa117;}.cls-6{fill:#f7ec1e;}</style></defs><rect class="cls-4" width="286.88" height="286.88"/><path class="cls-6" d="M29.67,287.03c7.4-3.81,14.8-7.62,22.36-11.52.87-.45,1.76-.9,2.64-1.36,1.28-.65,2.57-1.32,3.86-1.98,1.93-.99,3.87-1.99,5.82-3-.04,11.17,5.47,12.05-4.28,17.9"/><path class="cls-5" d="M57.07,287.07c.73-3.87.84-3.22,2-6-.88-.21-1.54-.13-2,0-.96.27-2,1-2,1,0,0-.76-1.67-1-3-.48-2.63.89-4.83,1-5,.66-1.03,1.47-1.66,2-2-.63,1.42-1.28,3.48-1.23,5.96.01.59.06,1.15.14,1.67,2.96-1.16,5.75-2.25,9.17-3.59,1.31-.68,2.61-1.36,3.92-2.04-1.36,1.65-3.15,4-5,7-2.19,3.55-2.93,1.77-4,6"/><path class="cls-6" d="M230.07,287.07c4-9,2.51-14.71-2.97-24.45,2.68,1.6,5.35,3.2,8.1,4.84,1.67-9.63-3.88-16.12-10.12-22.31.26-.29.53-.58.79-.87,3.57,1.59,7.13,3.18,10.77,4.81-1.14-11.72-6.71-20.35-17.14-25.85.16-.33.32-.67.48-1.01,3.84.27,7.69.54,11.91.84-2.91-3.26-6.12-5.79-9.59-7.68-5.84-3.18-11.16-3.81-14.42-4.18-3.61-.41-6.66-.31-8.81-.14.92,4.25,1.05,7.67,1,10-.04,1.93-.3,2.73-.56,7.88-.17,3.28-.12,4.51-.44,7.12-1.31,10.84-11.23,24.44-11.35,24.36-.02-.01.22-.46,1.35-2.36-.11-1.17-.49-3.21-2-5-.33-.39-.67-.72-1-1,.04.14.09.27.14.41.67,1.84,1.71,3.36,2.86,4.59,1.66-1.94,4.27-5.5,5.83-10.64,1.45-4.77,1.39-8.88,1.17-11.36-.17-1.67-.63-4.21-2-7-1.58-3.23-3.67-5.34-5.01-6.51,1.48,1.17,3.47,2.48,6.01,3.51,1.06.43,2.07.75,3,1,.07-4.12-.28-9.69-2-16-2.3-8.44-6.09-14.69-8.89-18.57,1.88.31,3.18.34,4.34.76,4.24,1.57,5,1.1,5-3.44.01-21.09.17-42.17-.12-63.25-.07-4.4-1.14-9.11-3-13.09-2.45-5.22-4.72-9.65,1.7-13.49.77-.46,1.09-1.61,1.73-2.35,9.6-10.98,14.77-23.68,14.63-38.35-.06-6.2-.55-12.38-.69-18.58-.12-5.11-.01-10.23-.01-15.35,0-4.23-1.95-8.16-5.21-8.93-3.91-.93-8.34-1.83-11.23,2.17-4.96,6.85-9.67,13.88-14.38,20.9-5.23,7.79-8.82,16.32-11.12,25.41-1.3,5.16-2.69,10.29-3.99,15.21-3.92-.36-7.3-.68-10.68-.99-.04-.35-.08-.7-.12-1.04,3.02-1.88,6.03-3.76,9.62-6-8.21-3.87-15.72-5.03-23.71-1.96-.12-.48-.25-.96-.37-1.45,5-3.78,10-7.56,14.82-11.21-13.56-2.28-24.79,2.92-34.92,12.89.26-7.94,4.89-12.84,8.8-18.43-1.98,0-3.35-.08-4.71.03-.84.07-1.69.36-2.46.71-10.95,4.91-20.77,10.9-23.54,23.92-.19.87-1.57,2.1-2.4,2.11-4.02.05-8.29-4-9.5-7.93-1.87-6.06-3.29-12.46-6.34-17.89-6.28-11.17-13.4-21.87-20.4-32.61-2.58-3.94-8.3-5.55-12.53-4.22-2.92.92-4.76,4.23-4.86,8.78v44.33c.13,1.47.09,2.98.42,4.41,2.61,11.33,8.45,20.83,16.81,28.78,2.04,1.94,2.5,3.41.99,5.95-4.29,7.29-5.67,15.26-5.56,23.71.22,18.57.13,37.15.09,55.73-.02,6.72-.13,6.72,5.21,4.68.17-.06.39-.01,1.26-.01-1.91,5.38-4.3,10.38-5.4,15.66-1.12,5.32-.96,10.91-1.38,16.67,4.48-1.51,8.16-2.75,11.85-3.99.22.32.45.65.67.98-8.55,9.5-12.38,20.63-12.18,33.33,4.19-1.53,8.1-2.96,12.02-4.4-4.9,7.32-9.26,14.46-10.3,22.85-.16,1.27-.24,2.56-.23,3.89,0,1.07.05,2.18.18,3.3,2.96-1.16,5.75-2.25,9.17-3.59.22-.09.44-.17.66-.26-.15.27-5.6,10.95-5.74,11.22"/><path class="cls-6" d="M175.05,81.21c3.81-12.23,7.81-24.4,15.16-35.1,1.91-2.78,4.01-5.44,6.32-8.54,6.29,14.77,3.29,40.42-13.02,56.5-2.83-2.73-5.73-5.11-8.04-7.96-.86-1.07-.88-3.41-.42-4.9Z"/><path class="cls-6" d="M62.13,86.35c-8.4-11.69-9.99-24.88-8.47-38.74.18-1.61.19-3.26.57-4.81.32-1.35,1.06-2.61,1.61-3.9,1.16.83,2.73,1.41,3.39,2.52,3.96,6.76,8.22,13.42,11.37,20.55,2.86,6.45,4.49,13.44,6.49,20.25.28.94-.02,2.55-.69,3.19-2.67,2.59-5.59,4.91-9.05,7.88-1.83-2.43-3.58-4.65-5.22-6.94Z"/><path class="cls-6" d="M66.35,171.24c-.84-3.99,1.34-7.49,5.93-9.6,1.11-.51,2.17-1.1,3.26-1.65-5.81-10.18-.55-22.05,10.22-23.07,7.55-.71,14.74,5.74,15.6,14,.78,7.48-4.08,13.4-11.92,14.47-1.48.2-2.98.19-4.47.29.15,2.31.81,4.74.34,6.92-.92,4.31-5.36,7.25-9.43,6.88-4.34-.39-8.67-4.13-9.53-8.24Z"/><path class="cls-6" d="M105.22,283.29c-1.2,1.64-2.04,2.78-3.18,4.33-5.61-3.59-7.19-9.27-8.4-15.67-2.63,2.8-5.09,5.43-7.56,8.07-.37-.24-.73-.48-1.1-.72,1.16-5.66,5.71-8.89,9.82-12.74-.89,6.57,1.24,12.05,5.01,17.71,2.64-3.39,4.95-6.36,8.12-10.43"/><path class="cls-6" d="M143.13,174.99c-1,2.12-1.74,4.43-3.08,6.31-1.1,1.54-2.74,2.95-4.45,3.77-3.42,1.64-6.75.72-9.83-1.3-3.03,2.95-6.36,2.13-9.61.59-4.27-2.02-5.61-6.05-6.63-10.23-2.62.19-3.04-1.66-2.65-3.44,1.04-4.71,2.29-9.38,3.67-14,.45-1.52,1.54-2.84,2.35-4.25,6.51-11.39,20.17-11.34,27.11-.03,3.26,5.31,5.65,10.87,5.86,17.11.06,1.99,1.59,5.4-2.74,5.47Z"/><path class="cls-6" d="M159.48,269.51c.12-.48.29-.95.5-1.4.1-.19.34-.32.8-.73"/><path class="cls-6" d="M165.11,170.09c-.09-1.49,0-3,.01-4.49-7.59-.8-13.19-5.67-14.28-12.42-.96-6,2.37-11.99,8.28-14.87,5.37-2.62,10.78-1.56,15.26,2.99,4.61,4.69,5.78,10.84,3.03,16.01-.4.77-.88,1.5-1.33,2.24,1.75,1.17,3.45,2.43,5.26,3.49,2.57,1.52,3.47,3.74,3.32,6.6-.27,4.96-5.38,9.9-10.41,10-4.69.1-8.81-4.18-9.14-9.55Z"/><path class="cls-6" d="M184.42,270.53c-2,3.07-4.61,5.77-7.14,8.46-.48.51-1.98.63-2.61.26-.56-.34-.86-1.65-.74-2.46.59-4.17,1.36-8.32,2-12.14.92,1.78,2.24,4.32,3.8,7.34,1.74-2.69,3.24-5.01,4.74-7.34.28.04.56.09.84.13-.26,1.94.07,4.26-.89,5.75Z"/><circle class="cls-2" cx="174.57" cy="168.57" r="11.5"/><circle class="cls-2" cx="75.57" cy="170.57" r="11.5"/><path class="cls-6" d="M242.07,124.07c3.11.75,40,17,41,20.84.55,2.1.44,3.31-3.37,6.41-15.63,12.75-29.53,23.4-44.41,35-8.02,6.25-15.86,12.37-24.23,18.75-1.73-3.25-3.48-6.14-5-9,16.45-19.63,26-28,46-48-7.18-1.68-13.94-3.1-17-4-7.83-2.29-8.13-1.77-16.07-3.55-7.17-1.6-9.44-6.61-5.61-12.13,12.81-18.44,25.81-36.78,38.74-55.16,6.46-9.18,13.08-18.28,19.29-27.6,1.63-2.45,3.62-3.12,5.92-2.12,2.58,1.12,4.14,3.33,2.44,6.03"/><path class="cls-6" d="M251.82,51.86c-1.16-7.78-5.23-12.65-12.84-15.16,6.74-1.27,9.74-6.32,13.11-12.41,1.82,7.35,6.06,10.95,12.64,12.56-8.34,1.71-11.63,7.39-12.9,15.02Z"/><path class="cls-3" d="M109.53,174.13c-2.61.19-3.04-1.66-2.65-3.43,1.04-4.71,2.29-9.38,3.67-14.01.45-1.51,1.55-2.84,2.35-4.24,6.51-11.39,20.17-11.35,27.11-.04,3.26,5.31,5.66,10.87,5.86,17.11.06,2,1.6,5.4-2.73,5.47-.67-.77-1.33-1.55-2.19-2.55-1.31,2.2-1.96,4.38-3.43,5.45-1.73,1.26-4.19,2.09-6.28,1.99-.84-.04-2.11-3.01-2.2-4.7-.42-7.97-.26-7.85,7.15-10.45,1.59-.56,2.76-2.33,4.12-3.54-1.62-.8-3.22-2.24-4.87-2.3-6.21-.22-12.44-.09-18.65.17-1.33.05-2.62,1.17-3.93,1.8,1.1,1.27,1.96,3.23,3.33,3.69,6.88,2.31,6.92,2.17,7.07,9.52.02,1.12.35,2.33.02,3.33-.31.94-1.15,2.19-1.99,2.4-3.55.89-5.97-.71-7.4-4-.87-2.01-1.91-3.72-4.36-1.67Z"/><path class="cls-5" d="M183.67,95.07c-3.2-3.09-6.48-5.78-9.1-9.01-.98-1.22-1-3.86-.48-5.55,4.31-13.85,8.84-27.64,17.16-39.76,2.17-3.16,4.55-6.17,7.16-9.68,7.12,16.73,3.73,45.79-14.75,64Z"/><path class="cls-5" d="M65.2,93.29c-2.21-3-4.31-5.74-6.3-8.57-10.12-14.45-12.04-30.75-10.21-47.89.21-1.99.23-4.02.68-5.94.39-1.67,1.28-3.22,1.95-4.82,1.39,1.02,3.29,1.74,4.08,3.12,4.78,8.35,9.91,16.58,13.72,25.39,3.44,7.97,5.41,16.62,7.82,25.02.34,1.17-.03,3.15-.83,3.94-3.22,3.2-6.75,6.07-10.92,9.74Z"/><path class="cls-1" d="M75.54,160c-5.81-10.18-.55-22.05,10.22-23.07,7.55-.71,14.74,5.74,15.6,14,.78,7.48-4.08,13.4-11.92,14.47-1.48.2-2.98.2-4.47.29-3.14-1.89-6.28-3.79-9.43-5.68ZM90.51,142.23c-3.21-.05-5.38,1.91-5.25,4.96.12,2.92,1.79,4.55,4.72,4.69,2.91.14,5.87-2.43,5.97-5.08.09-2.25-2.63-4.53-5.44-4.57Z"/><path class="cls-1" d="M165.12,165.6c-7.59-.8-13.19-5.67-14.28-12.41-.97-6,2.37-12,8.27-14.88,5.37-2.62,10.78-1.56,15.26,3,4.61,4.69,5.79,10.84,3.04,16.01-.41.77-.89,1.49-1.33,2.24-3.65,2.01-7.31,4.03-10.96,6.05ZM167.83,151.96c2.97-.07,5.71-2.61,5.54-5.44-.2-3.17-2.67-3.99-5.25-4.16-2.83-.18-5.18,2.35-5.22,5.24-.04,2.64,1.99,4.43,4.94,4.36Z"/><path class="cls-1" d="M109.53,174.13c2.45-2.05,3.49-.34,4.36,1.67,1.43,3.29,3.85,4.9,7.4,4,.84-.21,1.68-1.46,1.99-2.4.32-1,0-2.21-.02-3.33-.15-7.34-.2-7.21-7.07-9.52-1.37-.46-2.23-2.42-3.33-3.69,1.31-.63,2.6-1.74,3.93-1.8,6.21-.25,12.44-.38,18.65-.17,1.65.06,3.25,1.5,4.87,2.3-1.36,1.21-2.53,2.98-4.12,3.54-7.41,2.59-7.57,2.48-7.15,10.45.09,1.69,1.36,4.67,2.2,4.7,2.09.1,4.55-.73,6.28-1.99,1.47-1.07,2.12-3.25,3.43-5.45.86,1,1.53,1.78,2.19,2.55-1,2.12-1.74,4.42-3.08,6.3-1.1,1.55-2.74,2.95-4.45,3.77-3.42,1.64-6.76.72-9.83-1.3-3.03,2.95-6.36,2.13-9.62.59-4.27-2.02-5.61-6.05-6.63-10.23Z"/><path class="cls-5" d="M108.07,287.07s-1.94-2.99-2.85-4.78c-1.2,1.64-2.01,3.23-3.15,4.78-5.6-3.59-7.22-9.72-8.43-16.12-2.62,2.8-5.09,5.43-7.56,8.07-.37-.24-.73-.48-1.1-.71,1.16-5.67,5.71-8.9,9.82-12.74-.89,6.57,1.24,12.05,5.01,17.71,2.64-3.39,4.95-6.36,8.12-10.43.39,6.22,5.14,14.23,5.14,14.23h-5"/><path class="cls-5" d="M150.07,287.07c3.11-4.77,8.17-12.63,9.41-17.56.12-.48.3-.95.51-1.4.09-.19.34-.32.8-.73,1.6,8.82-1.25,15.13-5.71,19.69"/><path class="cls-5" d="M175.94,264.66c.92,1.78,2.24,4.32,3.79,7.33,1.74-2.69,3.24-5.01,4.74-7.33.28.04.56.08.84.13-.26,1.94.07,4.26-.89,5.75-2,3.08-4.61,5.78-7.14,8.47-.48.51-1.98.63-2.61.25-.56-.34-.86-1.65-.75-2.45.6-4.17,1.36-8.32,2.01-12.14Z"/><path class="cls-5" d="M140.62,286.88c1.53-2.32,3.07-4.65,4.66-7.05.89,2.27.8,4.82.01,7.24"/><path class="cls-3" d="M90.51,142.23c2.81.04,5.53,2.32,5.44,4.57-.11,2.65-3.06,5.22-5.97,5.08-2.94-.14-4.61-1.76-4.72-4.69-.12-3.05,2.04-5,5.25-4.96Z"/><path class="cls-3" d="M167.83,151.96c-2.95.07-4.97-1.72-4.94-4.36.04-2.89,2.39-5.42,5.22-5.24,2.58.17,5.05.99,5.25,4.16.18,2.83-2.57,5.37-5.54,5.44Z"/><path class="cls-5" d="M196.07,210.07c.45,2.34.83,5.03,1,8,.15,2.55.12,4.9,0,7-.91-.23-1.92-.55-3-1-2.14-.9-3.8-2.03-5-3,1.53,2.02,6.44,9.04,6,19-.33,7.4-3.45,12.71-5,15-.61-.66-1.28-1.33-2-2-1.71-1.6-3.41-2.92-5-4,.91,1.06,2.13,2.72,3,5,1.3,3.39,1.18,6.4,1,8,3.48-3.43,8.55-9.35,12-18,5.86-14.71,3.28-27.93,2-33-1.67-.33-3.33-.67-5-1Z"/><path class="cls-6" d="M26.07,106.56c-.12-.84-.6-3.43-2.83-5.66-.6-.6-2.53-2.38-5.66-2.83.84-.12,3.43-.6,5.66-2.83.6-.6,2.38-2.53,2.83-5.66.12.84.6,3.43,2.83,5.66.6.6,2.53,2.38,5.66,2.83-.96.21-3.35.87-5.49,3s-2.79,4.52-3,5.49Z"/><path class="cls-6" d="M113.98,30.32c-.12-.84-.6-3.43-2.83-5.66-.6-.6-2.53-2.38-5.66-2.83.84-.12,3.43-.6,5.66-2.83.6-.6,2.38-2.53,2.83-5.66.12.84.6,3.43,2.83,5.66.6.6,2.53,2.38,5.66,2.83-.96.21-3.35.87-5.49,3s-2.79,4.52-3,5.49Z"/><path class="cls-6" d="M260.21,204.94c-.09-.62-.44-2.53-2.09-4.18-.44-.44-1.87-1.76-4.18-2.09.62-.09,2.53-.44,4.18-2.09.44-.44,1.76-1.87,2.09-4.18.09.62.44,2.53,2.09,4.18.44.44,1.87,1.76,4.18,2.09-.71.16-2.48.64-4.05,2.22s-2.06,3.34-2.22,4.05Z"/><circle class="cls-1" cx="87.07" cy="151.07" r="15"/><circle class="cls-3" cx="92.07" cy="147.07" r="5"/><circle class="cls-1" cx="164.07" cy="151.07" r="15"/><circle class="cls-3" cx="169.07" cy="147.07" r="5"/><path class="cls-6" d="M21.65,271.13c-1.16-7.78-5.23-12.65-12.84-15.16,6.74-1.27,9.74-6.32,13.11-12.41,1.82,7.35,6.06,10.95,12.64,12.56-8.34,1.71-11.63,7.39-12.9,15.02Z"/></svg>