<svg xmlns="http://www.w3.org/2000/svg" viewBox="0 0 288 288" role="img" aria-label="Little Bull">
  <rect width="288" height="288" rx="56" fill="#0f172a"/>
  <path d="M58 82c21-34 49-43 86-17 37-26 65-17 86 17-31-8-53 0-67 24 30 8 52 35 52 69 0 43-32 75-71 75s-71-32-71-75c0-34 22-61 52-69-14-24-36-32-67-24z" fill="#facc15"/>
  <path d="M110 154c0-12 10-22 22-22h24c12 0 22 10 22 22v34c0 20-15 35-34 35s-34-15-34-35v-34z" fill="#111827"/>
  <circle cx="120" cy="162" r="7" fill="#f8fafc"/>
  <circle cx="168" cy="162" r="7" fill="#f8fafc"/>
  <path d="M128 194h32c-4 9-9 13-16 13s-12-4-16-13z" fill="#facc15"/>
</svg>
