<?xml version="1.0" standalone="no"?><!DOCTYPE svg PUBLIC "-//W3C//DTD SVG 1.1//EN" "http://www.w3.org/Graphics/SVG/1.1/DTD/svg11.dtd"><svg t="1757562465884" class="icon" viewBox="0 0 1024 1024" version="1.1" xmlns="http://www.w3.org/2000/svg" p-id="6071" xmlns:xlink="http://www.w3.org/1999/xlink" width="200" height="200"><path d="M92.928 28.444444c5.973333 0 11.946667 0.853333 17.664 2.531556L512.910222 148.195556l400.412445-117.191112c31.800889-9.301333 64.853333 7.480889 77.255111 37.944889l2.474666 7.253334c1.649778 5.916444 2.503111 12.032 2.503112 18.147555v835.128889c0 36.380444-28.871111 65.877333-64.483556 65.877333-6.001778 0-12.003556-0.853333-17.806222-2.56l-398.791111-117.191111-403.911111 117.390223c-31.829333 9.216-64.853333-7.623111-77.198223-38.115556l-2.474666-7.281778A67.299556 67.299556 0 0 1 28.444444 929.621333V94.350222C28.444444 57.941333 57.315556 28.444444 92.928 28.444444z m0 65.905778v835.271111l412.814222-119.864889c5.802667-1.678222 11.946667-1.678222 17.720889 0.028445l407.608889 119.722667V94.378667l-409.230222 119.751111c-5.802667 1.706667-11.946667 1.706667-17.720889 0.028444L92.928 94.350222z m226.417778 184.689778c53.930667 0 97.678222 44.743111 97.678222 99.925333a100.977778 100.977778 0 0 1-17.294222 56.746667l82.773333 112.355556a95.658667 95.658667 0 0 1 66.56 1.621333l69.489778-65.507556a101.546667 101.546667 0 0 1-7.253333-37.888c0-55.182222 43.747556-99.896889 97.678222-99.896889 53.930667 0 97.678222 44.714667 97.678222 99.896889s-43.747556 99.925333-97.678222 99.925334a95.573333 95.573333 0 0 1-47.872-12.8l-62.947556 59.335111a101.262222 101.262222 0 0 1 13.141334 50.062222c0 55.182222-43.719111 99.925333-97.678223 99.925333-53.959111 0-97.678222-44.743111-97.678222-99.925333 0-20.081778 5.802667-38.769778 15.758222-54.414222l-83.854222-113.834667a95.374222 95.374222 0 0 1-28.501333 4.323556c-53.959111 0-97.678222-44.743111-97.678222-99.925334S265.386667 279.04 319.345778 279.04z m194.275555 330.467556c-17.976889 0-32.568889 14.933333-32.568889 33.308444 0 18.403556 14.592 33.308444 32.568889 33.308444s32.568889-14.904889 32.568889-33.28c0-18.403556-14.592-33.336889-32.568889-33.336888z m195.356445-196.494223c-17.976889 0-32.568889 14.904889-32.568889 33.28 0 18.403556 14.592 33.308444 32.568889 33.308445s32.568889-14.904889 32.568889-33.28c0-18.403556-14.592-33.308444-32.568889-33.308445z m-389.632-67.356444c-18.005333 0-32.568889 14.904889-32.568889 33.28 0 18.403556 14.563556 33.336889 32.568889 33.336889 17.976889 0 32.540444-14.933333 32.540444-33.308445 0-18.403556-14.563556-33.308444-32.540444-33.308444z" p-id="6072" fill="#1296db"></path></svg>